<?xml version="1.0" encoding="UTF-8"?>
<!DOCTYPE svg PUBLIC "-//W3C//DTD SVG 1.1//EN" "http://www.w3.org/Graphics/SVG/1.1/DTD/svg11.dtd">
<!-- Creator: CorelDRAW X6 -->
<svg xmlns="http://www.w3.org/2000/svg" xml:space="preserve" width="8.4668mm" height="7.8988mm" version="1.1" style="shape-rendering:geometricPrecision; text-rendering:geometricPrecision; image-rendering:optimizeQuality; fill-rule:evenodd; clip-rule:evenodd"
viewBox="0 0 1142 1065"
 xmlns:xlink="http://www.w3.org/1999/xlink">
 <defs>
  <style type="text/css">
   <![CDATA[
    .fil0 {fill:#CD3539}
   ]]>
  </style>
 </defs>
 <g id="Capa_x0020_1">
  <metadata id="CorelCorpID_0Corel-Layer"/>
  <g id="_610217080">
   <path class="fil0" d="M793 0c-140,0 -265,82 -317,209 -2,5 -6,8 -10,10 -3,2 -8,2 -11,-2 -49,-35 -106,-52 -166,-52 -159,0 -285,120 -289,276 -2,46 3,460 484,615 19,6 38,10 57,10 25,0 51,-5 75,-16 127,-55 541,-270 526,-688 -8,-197 -168,-362 -349,-362zm-206 991c-27,13 -59,13 -87,5 -436,-141 -441,-511 -439,-553 3,-120 101,-214 225,-214 46,0 92,14 130,41 19,14 43,17 65,11 24,-6 41,-24 51,-46 43,-105 144,-171 258,-171 146,0 279,140 284,300 16,377 -368,576 -487,628z"/>
  </g>
 </g>
</svg>
